<?xml version="1.0" encoding="utf-8"?>
<!-- Generator: Adobe Illustrator 16.0.0, SVG Export Plug-In . SVG Version: 6.00 Build 0)  -->
<!DOCTYPE svg PUBLIC "-//W3C//DTD SVG 1.1//EN" "http://www.w3.org/Graphics/SVG/1.1/DTD/svg11.dtd">
<svg version="1.1" xmlns="http://www.w3.org/2000/svg" xmlns:xlink="http://www.w3.org/1999/xlink" x="0px" y="0px" width="1000px"
	 height="1000px" viewBox="0 0 1000 1000" enable-background="new 0 0 1000 1000" xml:space="preserve">
<g id="Tip" display="none">
	<g display="inline">
		<path fill-rule="evenodd" clip-rule="evenodd" d="M727.981,461.632c1.784,106.008-87.073,199.01-198.554,198.456
			c-110.115-0.549-198.132-88.629-198.486-198.822c-0.355-110.671,91.847-198.991,199.352-198.572
			C640.054,263.122,729.924,354.596,727.981,461.632z M721.041,461.406c-0.006-105.854-85.993-191.451-192.289-191.416
			c-104.459,0.035-190.544,86.36-190.678,191.21c-0.135,105.462,86.167,191.78,191.718,191.755
			C635.066,652.93,721.047,566.814,721.041,461.406z"/>
		<path fill-rule="evenodd" clip-rule="evenodd" fill="#FFFFFF" d="M721.041,461.406c0.006,105.409-85.975,191.524-191.249,191.549
			C424.241,652.98,337.939,566.662,338.074,461.2c0.134-104.85,86.218-191.175,190.678-191.21
			C635.048,269.955,721.035,355.552,721.041,461.406z M706.736,461.931c0.43-97.743-78.915-177.172-177.385-177.575
			c-96.673-0.395-176.249,78.938-176.639,176.099c-0.395,98.234,77.863,177.282,176.17,177.95
			C626.477,639.068,706.307,559.857,706.736,461.931z"/>
		<path fill-rule="evenodd" clip-rule="evenodd" d="M706.736,461.931c-0.43,97.927-80.26,177.138-177.854,176.475
			c-98.307-0.668-176.565-79.716-176.17-177.95c0.39-97.161,79.966-176.494,176.639-176.099
			C627.821,284.758,707.166,364.188,706.736,461.931z M700.231,461.723c0.185-94.201-76.091-170.546-170.729-170.883
			c-93.389-0.333-170.327,76.407-170.526,170.087c-0.2,94.058,76.089,170.868,169.979,171.14
			C623.262,632.341,700.047,555.973,700.231,461.723z"/>
		<path fill-rule="evenodd" clip-rule="evenodd" fill="#FFFFFF" d="M700.231,461.723c-0.185,94.25-76.97,170.618-171.275,170.344
			c-93.891-0.272-170.18-77.082-169.979-171.14c0.2-93.68,77.138-170.42,170.526-170.087
			C624.141,291.176,700.416,367.522,700.231,461.723z M541.991,555.228c1.885-0.45,3.559-0.636,5.062-1.245
			c7.972-3.229,16.488-5.604,23.744-10.029c32.25-19.678,34.543-69.86-0.236-90.024c-5.023-2.913-10.197-5.635-15.513-7.962
			c-7.612-3.332-15.583-5.873-23.093-9.405c-6.131-2.883-12.326-6.082-17.574-10.288c-8.419-6.745-7.101-18.627,2.482-23.631
			c4.133-2.158,9.103-3.314,13.791-3.689c14.694-1.177,28.803,1.68,42.307,7.582c1.721,0.752,3.531,1.297,5.559,2.032
			c2.958-11.657,5.73-22.58,8.76-34.517c-7.174-2.195-14.005-4.728-21.049-6.319c-7.244-1.636-14.695-2.352-22.615-3.556
			c0-8.623,0-17.207,0-25.812c-10.133,0-19.68,0-29.588,0c0,9.676,0,18.965,0,27.231c-9.057,3.849-17.847,6.662-25.726,11.094
			c-31.096,17.494-36.456,64.55-1.835,85.475c9.878,5.97,20.974,9.931,31.526,14.781c6.932,3.186,14.141,5.868,20.771,9.587
			c7.554,4.237,11.75,10.992,10.099,19.985c-1.565,8.521-8.094,12.797-15.761,14.026c-7.95,1.274-16.251,1.512-24.288,0.851
			c-13.551-1.114-26.21-5.84-38.732-12.42c-2.877,11.249-5.75,22.152-8.334,33.123c-0.236,1.006,1.085,3.068,2.178,3.576
			c4.357,2.026,8.779,4.183,13.417,5.283c11.428,2.713,22.989,4.871,35.333,7.424c0,8.651,0,18.035,0,27.254
			c10.137,0,19.552,0,29.317,0C541.991,575.34,541.991,565.387,541.991,555.228z"/>
		<path fill-rule="evenodd" clip-rule="evenodd" d="M541.991,555.228c0,10.159,0,20.112,0,30.407c-9.766,0-19.181,0-29.317,0
			c0-9.219,0-18.603,0-27.254c-12.344-2.553-23.904-4.711-35.333-7.424c-4.638-1.101-9.06-3.257-13.417-5.283
			c-1.093-0.508-2.415-2.57-2.178-3.576c2.584-10.971,5.457-21.874,8.334-33.123c12.522,6.58,25.181,11.306,38.732,12.42
			c8.037,0.661,16.338,0.424,24.288-0.851c7.667-1.229,14.195-5.505,15.761-14.026c1.651-8.993-2.545-15.749-10.099-19.985
			c-6.63-3.719-13.839-6.401-20.771-9.587c-10.552-4.85-21.647-8.811-31.526-14.781c-34.621-20.925-29.261-67.981,1.835-85.475
			c7.879-4.433,16.669-7.246,25.726-11.094c0-8.267,0-17.555,0-27.231c9.908,0,19.455,0,29.588,0c0,8.605,0,17.189,0,25.812
			c7.92,1.204,15.371,1.92,22.615,3.556c7.044,1.591,13.875,4.124,21.049,6.319c-3.029,11.937-5.802,22.859-8.76,34.517
			c-2.027-0.735-3.838-1.28-5.559-2.032c-13.504-5.902-27.612-8.759-42.307-7.582c-4.688,0.375-9.658,1.532-13.791,3.689
			c-9.583,5.004-10.901,16.886-2.482,23.631c5.248,4.206,11.443,7.404,17.574,10.288c7.51,3.532,15.48,6.073,23.093,9.405
			c5.315,2.327,10.489,5.049,15.513,7.962c34.779,20.165,32.486,70.347,0.236,90.024c-7.256,4.426-15.772,6.8-23.744,10.029
			C545.55,554.592,543.876,554.777,541.991,555.228z"/>
	</g>
</g>
<g id="Beer-Empty">
	<g>
		<path fill-rule="evenodd" clip-rule="evenodd" d="M434.407,337.331c3.202-9.472,3.202-9.471,12.346-9.471
			c10.166,0.001,20.332,0.001,30.498,0c9.229-0.001,9.229-0.001,12.002,8.804c-0.495-0.016-0.99-0.033-1.486-0.049
			c-0.295,1.983-1.108,4.057-0.78,5.931c0.716,4.087,2.466,8.038-1.43,11.63c-0.681,0.628-0.411,2.532-0.242,3.802
			c3.226,24.272,6.374,48.557,9.823,72.797c1.729,12.143,6.568,23.087,15.084,32.038c10.091,10.606,14.582,23.174,14.574,37.639
			c-0.034,60.661,0.03,121.322-0.106,181.983c-0.01,4.414-0.768,9.01-2.15,13.199c-2.529,7.668-8.1,12.261-16.395,12.296
			c-29.476,0.124-58.955,0.257-88.428-0.067c-10.897-0.12-17.458-8.367-18.465-21.527c-0.126-1.658-0.058-3.332-0.058-4.998
			c-0.002-60.161,0.045-120.322-0.038-180.483c-0.021-14.86,4.636-27.619,14.959-38.502c8.497-8.957,13.102-20.017,14.799-32.173
			c3.362-24.085,6.532-48.198,9.731-72.306c0.167-1.258,0.394-3.136-0.292-3.776c-4.08-3.806-2.375-8.019-1.024-12.068
			C438.264,339.229,437.936,337.603,434.407,337.331z M423.392,587.989c0.163-0.001,0.327-0.001,0.49-0.001
			c0-32.982-0.105-65.967,0.114-98.948c0.033-4.909,1.401-9.854,2.54-14.691c0.552-2.346,2.778-4.69-0.76-6.273
			c-3.145-1.407-5.778-1.431-7.97,2.269c-5.535,9.345-7.642,19.437-7.617,30.108c0.147,62.473,0.308,124.947,0.493,187.42
			c0.014,4.666,3.042,8.736,6.349,8.859c3.179,0.119,6.285-4.166,6.362-8.782c0.011-0.667,0-1.333,0-1.999
			C423.392,653.297,423.392,620.643,423.392,587.989z M448.424,356.58c-0.392-0.035-0.783-0.069-1.175-0.103
			c-0.346,1.372-0.846,2.726-1.014,4.119c-2.012,16.678-3.97,33.363-5.95,50.044c-1.118,9.415-2.477,18.811-3.181,28.256
			c-0.134,1.798,1.933,4.379,3.686,5.428c0.822,0.492,3.717-1.47,4.92-2.937c1.044-1.273,1.382-3.407,1.424-5.175
			c0.497-20.778,0.903-41.558,1.275-62.338C448.511,368.111,448.424,362.345,448.424,356.58z M447.685,354.182
			c5.391-3.631,1.09-6.969-0.21-10.318C446.925,347.219,442.011,350.589,447.685,354.182z"/>
		<path fill-rule="evenodd" clip-rule="evenodd" fill="#FFFFFF" d="M423.392,587.989c0,32.653,0,65.308,0,97.962
			c0,0.666,0.012,1.332,0,1.999c-0.077,4.616-3.184,8.901-6.362,8.782c-3.307-0.123-6.335-4.193-6.349-8.859
			c-0.185-62.473-0.346-124.947-0.493-187.42c-0.025-10.672,2.082-20.764,7.617-30.108c2.191-3.7,4.825-3.676,7.97-2.269
			c3.539,1.583,1.313,3.928,0.76,6.273c-1.139,4.837-2.507,9.782-2.54,14.691c-0.22,32.981-0.114,65.965-0.114,98.948
			C423.719,587.988,423.555,587.988,423.392,587.989z"/>
		<path fill-rule="evenodd" clip-rule="evenodd" fill="#FFFFFF" d="M448.424,356.58c0,5.765,0.087,11.531-0.016,17.294
			c-0.372,20.78-0.778,41.56-1.275,62.338c-0.042,1.768-0.38,3.902-1.424,5.175c-1.203,1.467-4.098,3.429-4.92,2.937
			c-1.752-1.048-3.82-3.629-3.686-5.428c0.705-9.445,2.063-18.841,3.181-28.256c1.98-16.682,3.938-33.366,5.95-50.044
			c0.168-1.394,0.668-2.747,1.014-4.119C447.641,356.511,448.032,356.545,448.424,356.58z"/>
		<path fill-rule="evenodd" clip-rule="evenodd" fill="#FFFFFF" d="M447.685,354.182c-5.674-3.593-0.759-6.963-0.21-10.318
			C448.774,347.212,453.075,350.55,447.685,354.182z"/>
	</g>
</g>
</svg>
