<?xml version="1.0" encoding="utf-8"?>
<!-- Generator: Adobe Illustrator 16.0.0, SVG Export Plug-In . SVG Version: 6.00 Build 0)  -->
<!DOCTYPE svg PUBLIC "-//W3C//DTD SVG 1.1//EN" "http://www.w3.org/Graphics/SVG/1.1/DTD/svg11.dtd">
<svg version="1.1" xmlns="http://www.w3.org/2000/svg" xmlns:xlink="http://www.w3.org/1999/xlink" x="0px" y="0px" width="1000px"
	 height="1000px" viewBox="0 0 1000 1000" enable-background="new 0 0 1000 1000" xml:space="preserve">
<g id="Tip" display="none">
	<g display="inline">
		<path fill-rule="evenodd" clip-rule="evenodd" d="M727.981,461.632c1.784,106.008-87.073,199.01-198.554,198.456
			c-110.115-0.549-198.132-88.629-198.486-198.822c-0.355-110.671,91.847-198.991,199.352-198.572
			C640.054,263.122,729.924,354.596,727.981,461.632z M721.041,461.406c-0.006-105.854-85.993-191.451-192.289-191.416
			c-104.459,0.035-190.544,86.36-190.678,191.21c-0.135,105.462,86.167,191.78,191.718,191.755
			C635.066,652.93,721.047,566.814,721.041,461.406z"/>
		<path fill-rule="evenodd" clip-rule="evenodd" fill="#FFFFFF" d="M721.041,461.406c0.006,105.409-85.975,191.524-191.249,191.549
			C424.241,652.98,337.939,566.662,338.074,461.2c0.134-104.85,86.218-191.175,190.678-191.21
			C635.048,269.955,721.035,355.552,721.041,461.406z M706.736,461.931c0.43-97.743-78.915-177.172-177.385-177.575
			c-96.673-0.395-176.249,78.938-176.639,176.099c-0.395,98.234,77.863,177.282,176.17,177.95
			C626.477,639.068,706.307,559.857,706.736,461.931z"/>
		<path fill-rule="evenodd" clip-rule="evenodd" d="M706.736,461.931c-0.43,97.927-80.26,177.138-177.854,176.475
			c-98.307-0.668-176.565-79.716-176.17-177.95c0.39-97.161,79.966-176.494,176.639-176.099
			C627.821,284.758,707.166,364.188,706.736,461.931z M700.231,461.723c0.185-94.201-76.091-170.546-170.729-170.883
			c-93.389-0.333-170.327,76.407-170.526,170.087c-0.2,94.058,76.089,170.868,169.979,171.14
			C623.262,632.341,700.047,555.973,700.231,461.723z"/>
		<path fill-rule="evenodd" clip-rule="evenodd" fill="#FFFFFF" d="M700.231,461.723c-0.185,94.25-76.97,170.618-171.275,170.344
			c-93.891-0.272-170.18-77.082-169.979-171.14c0.2-93.68,77.138-170.42,170.526-170.087
			C624.141,291.176,700.416,367.522,700.231,461.723z M541.991,555.228c1.885-0.45,3.559-0.636,5.062-1.245
			c7.972-3.229,16.488-5.604,23.744-10.029c32.25-19.678,34.543-69.86-0.236-90.024c-5.023-2.913-10.197-5.635-15.513-7.962
			c-7.612-3.332-15.583-5.873-23.093-9.405c-6.131-2.883-12.326-6.082-17.574-10.288c-8.419-6.745-7.101-18.627,2.482-23.631
			c4.133-2.158,9.103-3.314,13.791-3.689c14.694-1.177,28.803,1.68,42.307,7.582c1.721,0.752,3.531,1.297,5.559,2.032
			c2.958-11.657,5.73-22.58,8.76-34.517c-7.174-2.195-14.005-4.728-21.049-6.319c-7.244-1.636-14.695-2.352-22.615-3.556
			c0-8.623,0-17.207,0-25.812c-10.133,0-19.68,0-29.588,0c0,9.676,0,18.965,0,27.231c-9.057,3.849-17.847,6.662-25.726,11.094
			c-31.096,17.494-36.456,64.55-1.835,85.475c9.878,5.97,20.974,9.931,31.526,14.781c6.932,3.186,14.141,5.868,20.771,9.587
			c7.554,4.237,11.75,10.992,10.099,19.985c-1.565,8.521-8.094,12.797-15.761,14.026c-7.95,1.274-16.251,1.512-24.288,0.851
			c-13.551-1.114-26.21-5.84-38.732-12.42c-2.877,11.249-5.75,22.152-8.334,33.123c-0.236,1.006,1.085,3.068,2.178,3.576
			c4.357,2.026,8.779,4.183,13.417,5.283c11.428,2.713,22.989,4.871,35.333,7.424c0,8.651,0,18.035,0,27.254
			c10.137,0,19.552,0,29.317,0C541.991,575.34,541.991,565.387,541.991,555.228z"/>
		<path fill-rule="evenodd" clip-rule="evenodd" d="M541.991,555.228c0,10.159,0,20.112,0,30.407c-9.766,0-19.181,0-29.317,0
			c0-9.219,0-18.603,0-27.254c-12.344-2.553-23.904-4.711-35.333-7.424c-4.638-1.101-9.06-3.257-13.417-5.283
			c-1.093-0.508-2.415-2.57-2.178-3.576c2.584-10.971,5.457-21.874,8.334-33.123c12.522,6.58,25.181,11.306,38.732,12.42
			c8.037,0.661,16.338,0.424,24.288-0.851c7.667-1.229,14.195-5.505,15.761-14.026c1.651-8.993-2.545-15.749-10.099-19.985
			c-6.63-3.719-13.839-6.401-20.771-9.587c-10.552-4.85-21.647-8.811-31.526-14.781c-34.621-20.925-29.261-67.981,1.835-85.475
			c7.879-4.433,16.669-7.246,25.726-11.094c0-8.267,0-17.555,0-27.231c9.908,0,19.455,0,29.588,0c0,8.605,0,17.189,0,25.812
			c7.92,1.204,15.371,1.92,22.615,3.556c7.044,1.591,13.875,4.124,21.049,6.319c-3.029,11.937-5.802,22.859-8.76,34.517
			c-2.027-0.735-3.838-1.28-5.559-2.032c-13.504-5.902-27.612-8.759-42.307-7.582c-4.688,0.375-9.658,1.532-13.791,3.689
			c-9.583,5.004-10.901,16.886-2.482,23.631c5.248,4.206,11.443,7.404,17.574,10.288c7.51,3.532,15.48,6.073,23.093,9.405
			c5.315,2.327,10.489,5.049,15.513,7.962c34.779,20.165,32.486,70.347,0.236,90.024c-7.256,4.426-15.772,6.8-23.744,10.029
			C545.55,554.592,543.876,554.777,541.991,555.228z"/>
	</g>
</g>
<g id="Beer-Empty" display="none">
	<g display="inline">
		<path fill-rule="evenodd" clip-rule="evenodd" d="M434.407,337.331c3.202-9.472,3.202-9.471,12.346-9.471
			c10.166,0.001,20.332,0.001,30.498,0c9.229-0.001,9.229-0.001,12.002,8.804c-0.495-0.016-0.99-0.033-1.486-0.049
			c-0.295,1.983-1.108,4.057-0.78,5.931c0.716,4.087,2.466,8.038-1.43,11.63c-0.681,0.628-0.411,2.532-0.242,3.802
			c3.226,24.272,6.374,48.557,9.823,72.797c1.729,12.143,6.568,23.087,15.084,32.038c10.091,10.606,14.582,23.174,14.574,37.639
			c-0.034,60.661,0.03,121.322-0.106,181.983c-0.01,4.414-0.768,9.01-2.15,13.199c-2.529,7.668-8.1,12.261-16.395,12.296
			c-29.476,0.124-58.955,0.257-88.428-0.067c-10.897-0.12-17.458-8.367-18.465-21.527c-0.126-1.658-0.058-3.332-0.058-4.998
			c-0.002-60.161,0.045-120.322-0.038-180.483c-0.021-14.86,4.636-27.619,14.959-38.502c8.497-8.957,13.102-20.017,14.799-32.173
			c3.362-24.085,6.532-48.198,9.731-72.306c0.167-1.258,0.394-3.136-0.292-3.776c-4.08-3.806-2.375-8.019-1.024-12.068
			C438.264,339.229,437.936,337.603,434.407,337.331z M423.392,587.989c0.163-0.001,0.327-0.001,0.49-0.001
			c0-32.982-0.105-65.967,0.114-98.948c0.033-4.909,1.401-9.854,2.54-14.691c0.552-2.346,2.778-4.69-0.76-6.273
			c-3.145-1.407-5.778-1.431-7.97,2.269c-5.535,9.345-7.642,19.437-7.617,30.108c0.147,62.473,0.308,124.947,0.493,187.42
			c0.014,4.666,3.042,8.736,6.349,8.859c3.179,0.119,6.285-4.166,6.362-8.782c0.011-0.667,0-1.333,0-1.999
			C423.392,653.297,423.392,620.643,423.392,587.989z M448.424,356.58c-0.392-0.035-0.783-0.069-1.175-0.103
			c-0.346,1.372-0.846,2.726-1.014,4.119c-2.012,16.678-3.97,33.363-5.95,50.044c-1.118,9.415-2.477,18.811-3.181,28.256
			c-0.134,1.798,1.933,4.379,3.686,5.428c0.822,0.492,3.717-1.47,4.92-2.937c1.044-1.273,1.382-3.407,1.424-5.175
			c0.497-20.778,0.903-41.558,1.275-62.338C448.511,368.111,448.424,362.345,448.424,356.58z M447.685,354.182
			c5.391-3.631,1.09-6.969-0.21-10.318C446.925,347.219,442.011,350.589,447.685,354.182z"/>
		<path fill-rule="evenodd" clip-rule="evenodd" fill="#FFFFFF" d="M423.392,587.989c0,32.653,0,65.308,0,97.962
			c0,0.666,0.012,1.332,0,1.999c-0.077,4.616-3.184,8.901-6.362,8.782c-3.307-0.123-6.335-4.193-6.349-8.859
			c-0.185-62.473-0.346-124.947-0.493-187.42c-0.025-10.672,2.082-20.764,7.617-30.108c2.191-3.7,4.825-3.676,7.97-2.269
			c3.539,1.583,1.313,3.928,0.76,6.273c-1.139,4.837-2.507,9.782-2.54,14.691c-0.22,32.981-0.114,65.965-0.114,98.948
			C423.719,587.988,423.555,587.988,423.392,587.989z"/>
		<path fill-rule="evenodd" clip-rule="evenodd" fill="#FFFFFF" d="M448.424,356.58c0,5.765,0.087,11.531-0.016,17.294
			c-0.372,20.78-0.778,41.56-1.275,62.338c-0.042,1.768-0.38,3.902-1.424,5.175c-1.203,1.467-4.098,3.429-4.92,2.937
			c-1.752-1.048-3.82-3.629-3.686-5.428c0.705-9.445,2.063-18.841,3.181-28.256c1.98-16.682,3.938-33.366,5.95-50.044
			c0.168-1.394,0.668-2.747,1.014-4.119C447.641,356.511,448.032,356.545,448.424,356.58z"/>
		<path fill-rule="evenodd" clip-rule="evenodd" fill="#FFFFFF" d="M447.685,354.182c-5.674-3.593-0.759-6.963-0.21-10.318
			C448.774,347.212,453.075,350.55,447.685,354.182z"/>
	</g>
</g>
<g id="Layer_3">
	<g>
		<path fill-rule="evenodd" clip-rule="evenodd" fill="#090A09" d="M400.242,567.051c-0.028-43.16-0.166-86.322-0.016-129.482
			c0.044-12.775,4.52-24.118,13.385-33.501c9.483-10.038,14.705-21.992,16.513-35.59c3.14-23.608,6.364-47.206,9.522-70.812
			c0.15-1.124,0.485-2.858-0.085-3.343c-4.482-3.808-2.436-8.136-1.322-12.435c0.457-1.765,2.084-3.935-1.659-4.195
			c-1.291-0.09-1.265-1.248-0.684-2.273c1.542-2.724,1.066-6.979,5.509-7.494c1.811-0.21,3.661-0.097,5.493-0.099
			c11.666-0.008,23.331-0.024,34.997-0.001c4.736,0.009,8.503,3.773,8.468,8.369c-0.002,0.305,0,0.842-0.123,0.881
			c-6.059,1.908-1.564,5.639-1.405,8.531c0.156,2.83,0.97,5.728-1.731,7.831c-1.537,1.196-1.014,2.695-0.823,4.123
			c3.29,24.597,6.427,49.216,9.994,73.773c1.759,12.109,6.813,22.941,15.336,31.884c9.299,9.757,14.095,21.394,14.145,34.729
			c0.145,39.661,0.01,79.322-0.016,118.984c-6.776-0.562-13.527-0.915-20.357-0.45c-14.985,1.021-28.529,7.188-42.402,11.896
			c-12.673,4.301-25.064,8.592-38.688,6.457c0.016-43.656-0.047-87.313,0.102-130.97c0.036-10.774-0.496-21.716,4.143-31.926
			c0.817-1.798,0.032-3.083-1.413-3.7c-3.253-1.39-5.981-1.784-8.364,2.23c-6.025,10.149-7.598,21.149-7.593,32.62
			c0.017,43.156,0.003,86.312,0.001,129.469C407.086,571.593,403.749,569.154,400.242,567.051z M448.405,283.615
			c-0.325,3.625-5.968,7.547,0.75,10.829c0.812,0.397,0.256,1.365-0.105,2.171c-0.809,1.802-1.76,3.662-1.997,5.58
			c-1.978,16.026-3.793,32.073-5.684,48.11c-1.111,9.426-2.191,18.857-3.451,28.264c-0.409,3.053,0.933,4.798,3.458,5.844
			c2.344,0.971,3.743-0.733,4.978-2.295c1.159-1.466,1.543-3.273,1.72-5.13c2.5-26.251,1.895-52.523,0.511-78.798
			c-0.069-1.313-0.708-2.904,0.401-3.809C453.754,290.491,449.923,287.129,448.405,283.615z"/>
		<path fill-rule="evenodd" clip-rule="evenodd" fill="#FDD702" d="M424.292,574.834c13.624,2.135,26.015-2.156,38.688-6.457
			c13.873-4.707,27.417-10.875,42.402-11.896c6.83-0.465,13.581-0.111,20.357,0.45c0.085,24.624,0.871,49.275-0.086,73.859
			c-0.389,10.01-6.791,18.432-19.473,18.291c-25.462-0.282-50.93-0.146-76.395-0.031c-5.184,0.023-10.281-0.625-15.408-1.061
			c-8.564-0.729-13.751-8.623-14.09-17.56c-0.8-21.097-0.124-42.249-0.045-63.38c3.507,2.104,6.844,4.542,10.925,5.507
			c2.796,0.897,1.784,3.264,1.792,5.063c0.068,16.661,0.116,33.323-0.017,49.983c-0.03,3.798,0.988,6.987,4.911,7.233
			c4.649,0.293,5.19-3.385,5.176-7.17c-0.06-15.994-0.063-31.989,0.033-47.983C423.07,578.068,421.959,575.945,424.292,574.834z"/>
		<path fill-rule="evenodd" clip-rule="evenodd" fill="#FDFDFD" d="M424.292,574.834c-2.333,1.111-1.222,3.234-1.231,4.851
			c-0.096,15.994-0.093,31.989-0.033,47.983c0.014,3.785-0.527,7.463-5.176,7.17c-3.923-0.246-4.941-3.436-4.911-7.233
			c0.133-16.66,0.085-33.322,0.017-49.983c-0.007-1.8,1.004-4.166-1.792-5.063c0.002-43.157,0.016-86.313-0.001-129.469
			c-0.004-11.471,1.568-22.471,7.593-32.62c2.383-4.014,5.11-3.62,8.364-2.23c1.445,0.618,2.23,1.902,1.413,3.7
			c-4.638,10.21-4.106,21.151-4.143,31.926C424.245,487.521,424.307,531.178,424.292,574.834z"/>
		<path fill-rule="evenodd" clip-rule="evenodd" fill="#FDFDFD" d="M448.405,283.615c1.518,3.514,5.349,6.876,0.581,10.766
			c-1.109,0.905-0.47,2.496-0.401,3.809c1.384,26.275,1.99,52.547-0.511,78.798c-0.177,1.857-0.562,3.664-1.72,5.13
			c-1.235,1.562-2.634,3.266-4.978,2.295c-2.525-1.046-3.867-2.791-3.458-5.844c1.26-9.407,2.339-18.838,3.451-28.264
			c1.891-16.037,3.707-32.083,5.684-48.11c0.236-1.918,1.188-3.778,1.997-5.58c0.362-0.806,0.917-1.774,0.105-2.171
			C442.438,291.162,448.08,287.24,448.405,283.615z"/>
	</g>
</g>
</svg>
