<?xml version="1.0" encoding="utf-8"?>
<!-- Generator: Adobe Illustrator 16.0.0, SVG Export Plug-In . SVG Version: 6.00 Build 0)  -->
<!DOCTYPE svg PUBLIC "-//W3C//DTD SVG 1.1//EN" "http://www.w3.org/Graphics/SVG/1.1/DTD/svg11.dtd">
<svg version="1.1" xmlns="http://www.w3.org/2000/svg" xmlns:xlink="http://www.w3.org/1999/xlink" x="0px" y="0px" width="1000px"
	 height="1000px" viewBox="0 0 1000 1000" enable-background="new 0 0 1000 1000" xml:space="preserve">
<g id="Tip" display="none">
	<g display="inline">
		<path fill-rule="evenodd" clip-rule="evenodd" d="M727.981,461.632c1.784,106.008-87.073,199.01-198.554,198.456
			c-110.115-0.549-198.132-88.629-198.486-198.822c-0.355-110.671,91.847-198.991,199.352-198.572
			C640.054,263.122,729.924,354.596,727.981,461.632z M721.041,461.406c-0.006-105.854-85.993-191.451-192.289-191.416
			c-104.459,0.035-190.544,86.36-190.678,191.21c-0.135,105.462,86.167,191.78,191.718,191.755
			C635.066,652.93,721.047,566.814,721.041,461.406z"/>
		<path fill-rule="evenodd" clip-rule="evenodd" fill="#FFFFFF" d="M721.041,461.406c0.006,105.409-85.975,191.524-191.249,191.549
			C424.241,652.98,337.939,566.662,338.074,461.2c0.134-104.85,86.218-191.175,190.678-191.21
			C635.048,269.955,721.035,355.552,721.041,461.406z M706.736,461.931c0.43-97.743-78.915-177.172-177.385-177.575
			c-96.673-0.395-176.249,78.938-176.639,176.099c-0.395,98.234,77.863,177.282,176.17,177.95
			C626.477,639.068,706.307,559.857,706.736,461.931z"/>
		<path fill-rule="evenodd" clip-rule="evenodd" d="M706.736,461.931c-0.43,97.927-80.26,177.138-177.854,176.475
			c-98.307-0.668-176.565-79.716-176.17-177.95c0.39-97.161,79.966-176.494,176.639-176.099
			C627.821,284.758,707.166,364.188,706.736,461.931z M700.231,461.723c0.185-94.201-76.091-170.546-170.729-170.883
			c-93.389-0.333-170.327,76.407-170.526,170.087c-0.2,94.058,76.089,170.868,169.979,171.14
			C623.262,632.341,700.047,555.973,700.231,461.723z"/>
		<path fill-rule="evenodd" clip-rule="evenodd" fill="#FFFFFF" d="M700.231,461.723c-0.185,94.25-76.97,170.618-171.275,170.344
			c-93.891-0.272-170.18-77.082-169.979-171.14c0.2-93.68,77.138-170.42,170.526-170.087
			C624.141,291.176,700.416,367.522,700.231,461.723z M541.991,555.228c1.885-0.45,3.559-0.636,5.062-1.245
			c7.972-3.229,16.488-5.604,23.744-10.029c32.25-19.678,34.543-69.86-0.236-90.024c-5.023-2.913-10.197-5.635-15.513-7.962
			c-7.612-3.332-15.583-5.873-23.093-9.405c-6.131-2.883-12.326-6.082-17.574-10.288c-8.419-6.745-7.101-18.627,2.482-23.631
			c4.133-2.158,9.103-3.314,13.791-3.689c14.694-1.177,28.803,1.68,42.307,7.582c1.721,0.752,3.531,1.297,5.559,2.032
			c2.958-11.657,5.73-22.58,8.76-34.517c-7.174-2.195-14.005-4.728-21.049-6.319c-7.244-1.636-14.695-2.352-22.615-3.556
			c0-8.623,0-17.207,0-25.812c-10.133,0-19.68,0-29.588,0c0,9.676,0,18.965,0,27.231c-9.057,3.849-17.847,6.662-25.726,11.094
			c-31.096,17.494-36.456,64.55-1.835,85.475c9.878,5.97,20.974,9.931,31.526,14.781c6.932,3.186,14.141,5.868,20.771,9.587
			c7.554,4.237,11.75,10.992,10.099,19.985c-1.565,8.521-8.094,12.797-15.761,14.026c-7.95,1.274-16.251,1.512-24.288,0.851
			c-13.551-1.114-26.21-5.84-38.732-12.42c-2.877,11.249-5.75,22.152-8.334,33.123c-0.236,1.006,1.085,3.068,2.178,3.576
			c4.357,2.026,8.779,4.183,13.417,5.283c11.428,2.713,22.989,4.871,35.333,7.424c0,8.651,0,18.035,0,27.254
			c10.137,0,19.552,0,29.317,0C541.991,575.34,541.991,565.387,541.991,555.228z"/>
		<path fill-rule="evenodd" clip-rule="evenodd" d="M541.991,555.228c0,10.159,0,20.112,0,30.407c-9.766,0-19.181,0-29.317,0
			c0-9.219,0-18.603,0-27.254c-12.344-2.553-23.904-4.711-35.333-7.424c-4.638-1.101-9.06-3.257-13.417-5.283
			c-1.093-0.508-2.415-2.57-2.178-3.576c2.584-10.971,5.457-21.874,8.334-33.123c12.522,6.58,25.181,11.306,38.732,12.42
			c8.037,0.661,16.338,0.424,24.288-0.851c7.667-1.229,14.195-5.505,15.761-14.026c1.651-8.993-2.545-15.749-10.099-19.985
			c-6.63-3.719-13.839-6.401-20.771-9.587c-10.552-4.85-21.647-8.811-31.526-14.781c-34.621-20.925-29.261-67.981,1.835-85.475
			c7.879-4.433,16.669-7.246,25.726-11.094c0-8.267,0-17.555,0-27.231c9.908,0,19.455,0,29.588,0c0,8.605,0,17.189,0,25.812
			c7.92,1.204,15.371,1.92,22.615,3.556c7.044,1.591,13.875,4.124,21.049,6.319c-3.029,11.937-5.802,22.859-8.76,34.517
			c-2.027-0.735-3.838-1.28-5.559-2.032c-13.504-5.902-27.612-8.759-42.307-7.582c-4.688,0.375-9.658,1.532-13.791,3.689
			c-9.583,5.004-10.901,16.886-2.482,23.631c5.248,4.206,11.443,7.404,17.574,10.288c7.51,3.532,15.48,6.073,23.093,9.405
			c5.315,2.327,10.489,5.049,15.513,7.962c34.779,20.165,32.486,70.347,0.236,90.024c-7.256,4.426-15.772,6.8-23.744,10.029
			C545.55,554.592,543.876,554.777,541.991,555.228z"/>
	</g>
</g>
<g id="Beer-Empty" display="none">
	<g display="inline">
		<path fill-rule="evenodd" clip-rule="evenodd" d="M434.407,337.331c3.202-9.472,3.202-9.471,12.346-9.471
			c10.166,0.001,20.332,0.001,30.498,0c9.229-0.001,9.229-0.001,12.002,8.804c-0.495-0.016-0.99-0.033-1.486-0.049
			c-0.295,1.983-1.108,4.057-0.78,5.931c0.716,4.087,2.466,8.038-1.43,11.63c-0.681,0.628-0.411,2.532-0.242,3.802
			c3.226,24.272,6.374,48.557,9.823,72.797c1.729,12.143,6.568,23.087,15.084,32.038c10.091,10.606,14.582,23.174,14.574,37.639
			c-0.034,60.661,0.03,121.322-0.106,181.983c-0.01,4.414-0.768,9.01-2.15,13.199c-2.529,7.668-8.1,12.261-16.395,12.296
			c-29.476,0.124-58.955,0.257-88.428-0.067c-10.897-0.12-17.458-8.367-18.465-21.527c-0.126-1.658-0.058-3.332-0.058-4.998
			c-0.002-60.161,0.045-120.322-0.038-180.483c-0.021-14.86,4.636-27.619,14.959-38.502c8.497-8.957,13.102-20.017,14.799-32.173
			c3.362-24.085,6.532-48.198,9.731-72.306c0.167-1.258,0.394-3.136-0.292-3.776c-4.08-3.806-2.375-8.019-1.024-12.068
			C438.264,339.229,437.936,337.603,434.407,337.331z M423.392,587.989c0.163-0.001,0.327-0.001,0.49-0.001
			c0-32.982-0.105-65.967,0.114-98.948c0.033-4.909,1.401-9.854,2.54-14.691c0.552-2.346,2.778-4.69-0.76-6.273
			c-3.145-1.407-5.778-1.431-7.97,2.269c-5.535,9.345-7.642,19.437-7.617,30.108c0.147,62.473,0.308,124.947,0.493,187.42
			c0.014,4.666,3.042,8.736,6.349,8.859c3.179,0.119,6.285-4.166,6.362-8.782c0.011-0.667,0-1.333,0-1.999
			C423.392,653.297,423.392,620.643,423.392,587.989z M448.424,356.58c-0.392-0.035-0.783-0.069-1.175-0.103
			c-0.346,1.372-0.846,2.726-1.014,4.119c-2.012,16.678-3.97,33.363-5.95,50.044c-1.118,9.415-2.477,18.811-3.181,28.256
			c-0.134,1.798,1.933,4.379,3.686,5.428c0.822,0.492,3.717-1.47,4.92-2.937c1.044-1.273,1.382-3.407,1.424-5.175
			c0.497-20.778,0.903-41.558,1.275-62.338C448.511,368.111,448.424,362.345,448.424,356.58z M447.685,354.182
			c5.391-3.631,1.09-6.969-0.21-10.318C446.925,347.219,442.011,350.589,447.685,354.182z"/>
		<path fill-rule="evenodd" clip-rule="evenodd" fill="#FFFFFF" d="M423.392,587.989c0,32.653,0,65.308,0,97.962
			c0,0.666,0.012,1.332,0,1.999c-0.077,4.616-3.184,8.901-6.362,8.782c-3.307-0.123-6.335-4.193-6.349-8.859
			c-0.185-62.473-0.346-124.947-0.493-187.42c-0.025-10.672,2.082-20.764,7.617-30.108c2.191-3.7,4.825-3.676,7.97-2.269
			c3.539,1.583,1.313,3.928,0.76,6.273c-1.139,4.837-2.507,9.782-2.54,14.691c-0.22,32.981-0.114,65.965-0.114,98.948
			C423.719,587.988,423.555,587.988,423.392,587.989z"/>
		<path fill-rule="evenodd" clip-rule="evenodd" fill="#FFFFFF" d="M448.424,356.58c0,5.765,0.087,11.531-0.016,17.294
			c-0.372,20.78-0.778,41.56-1.275,62.338c-0.042,1.768-0.38,3.902-1.424,5.175c-1.203,1.467-4.098,3.429-4.92,2.937
			c-1.752-1.048-3.82-3.629-3.686-5.428c0.705-9.445,2.063-18.841,3.181-28.256c1.98-16.682,3.938-33.366,5.95-50.044
			c0.168-1.394,0.668-2.747,1.014-4.119C447.641,356.511,448.032,356.545,448.424,356.58z"/>
		<path fill-rule="evenodd" clip-rule="evenodd" fill="#FFFFFF" d="M447.685,354.182c-5.674-3.593-0.759-6.963-0.21-10.318
			C448.774,347.212,453.075,350.55,447.685,354.182z"/>
	</g>
</g>
<g id="beer-third" display="none">
	<g display="inline">
		<path fill-rule="evenodd" clip-rule="evenodd" fill="#090A09" d="M400.242,567.051c-0.028-43.16-0.166-86.322-0.016-129.482
			c0.044-12.775,4.52-24.118,13.385-33.501c9.483-10.038,14.705-21.992,16.513-35.59c3.14-23.608,6.364-47.206,9.522-70.812
			c0.15-1.124,0.485-2.858-0.085-3.343c-4.482-3.808-2.436-8.136-1.322-12.435c0.457-1.765,2.084-3.935-1.659-4.195
			c-1.291-0.09-1.265-1.248-0.684-2.273c1.542-2.724,1.066-6.979,5.509-7.494c1.811-0.21,3.661-0.097,5.493-0.099
			c11.666-0.008,23.331-0.024,34.997-0.001c4.736,0.009,8.503,3.773,8.468,8.369c-0.002,0.305,0,0.842-0.123,0.881
			c-6.059,1.908-1.564,5.639-1.405,8.531c0.156,2.83,0.97,5.728-1.731,7.831c-1.537,1.196-1.014,2.695-0.823,4.123
			c3.29,24.597,6.427,49.216,9.994,73.773c1.759,12.109,6.813,22.941,15.336,31.884c9.299,9.757,14.095,21.394,14.145,34.729
			c0.145,39.661,0.01,79.322-0.016,118.984c-6.776-0.562-13.527-0.915-20.357-0.45c-14.985,1.021-28.529,7.188-42.402,11.896
			c-12.673,4.301-25.064,8.592-38.688,6.457c0.016-43.656-0.047-87.313,0.102-130.97c0.036-10.774-0.496-21.716,4.143-31.926
			c0.817-1.798,0.032-3.083-1.413-3.7c-3.253-1.39-5.981-1.784-8.364,2.23c-6.025,10.149-7.598,21.149-7.593,32.62
			c0.017,43.156,0.003,86.312,0.001,129.469C407.086,571.593,403.749,569.154,400.242,567.051z M448.405,283.615
			c-0.325,3.625-5.968,7.547,0.75,10.829c0.812,0.397,0.256,1.365-0.105,2.171c-0.809,1.802-1.76,3.662-1.997,5.58
			c-1.978,16.026-3.793,32.073-5.684,48.11c-1.111,9.426-2.191,18.857-3.451,28.264c-0.409,3.053,0.933,4.798,3.458,5.844
			c2.344,0.971,3.743-0.733,4.978-2.295c1.159-1.466,1.543-3.273,1.72-5.13c2.5-26.251,1.895-52.523,0.511-78.798
			c-0.069-1.313-0.708-2.904,0.401-3.809C453.754,290.491,449.923,287.129,448.405,283.615z"/>
		<path fill-rule="evenodd" clip-rule="evenodd" fill="#FDD702" d="M424.292,574.834c13.624,2.135,26.015-2.156,38.688-6.457
			c13.873-4.707,27.417-10.875,42.402-11.896c6.83-0.465,13.581-0.111,20.357,0.45c0.085,24.624,0.871,49.275-0.086,73.859
			c-0.389,10.01-6.791,18.432-19.473,18.291c-25.462-0.282-50.93-0.146-76.395-0.031c-5.184,0.023-10.281-0.625-15.408-1.061
			c-8.564-0.729-13.751-8.623-14.09-17.56c-0.8-21.097-0.124-42.249-0.045-63.38c3.507,2.104,6.844,4.542,10.925,5.507
			c2.796,0.897,1.784,3.264,1.792,5.063c0.068,16.661,0.116,33.323-0.017,49.983c-0.03,3.798,0.988,6.987,4.911,7.233
			c4.649,0.293,5.19-3.385,5.176-7.17c-0.06-15.994-0.063-31.989,0.033-47.983C423.07,578.068,421.959,575.945,424.292,574.834z"/>
		<path fill-rule="evenodd" clip-rule="evenodd" fill="#FDFDFD" d="M424.292,574.834c-2.333,1.111-1.222,3.234-1.231,4.851
			c-0.096,15.994-0.093,31.989-0.033,47.983c0.014,3.785-0.527,7.463-5.176,7.17c-3.923-0.246-4.941-3.436-4.911-7.233
			c0.133-16.66,0.085-33.322,0.017-49.983c-0.007-1.8,1.004-4.166-1.792-5.063c0.002-43.157,0.016-86.313-0.001-129.469
			c-0.004-11.471,1.568-22.471,7.593-32.62c2.383-4.014,5.11-3.62,8.364-2.23c1.445,0.618,2.23,1.902,1.413,3.7
			c-4.638,10.21-4.106,21.151-4.143,31.926C424.245,487.521,424.307,531.178,424.292,574.834z"/>
		<path fill-rule="evenodd" clip-rule="evenodd" fill="#FDFDFD" d="M448.405,283.615c1.518,3.514,5.349,6.876,0.581,10.766
			c-1.109,0.905-0.47,2.496-0.401,3.809c1.384,26.275,1.99,52.547-0.511,78.798c-0.177,1.857-0.562,3.664-1.72,5.13
			c-1.235,1.562-2.634,3.266-4.978,2.295c-2.525-1.046-3.867-2.791-3.458-5.844c1.26-9.407,2.339-18.838,3.451-28.264
			c1.891-16.037,3.707-32.083,5.684-48.11c0.236-1.918,1.188-3.778,1.997-5.58c0.362-0.806,0.917-1.774,0.105-2.171
			C442.438,291.162,448.08,287.24,448.405,283.615z"/>
	</g>
</g>
<g id="beer-half" display="none">
	<g display="inline">
		<path fill-rule="evenodd" clip-rule="evenodd" fill="#FDD701" d="M511.772,527.628c0.075,1.66,0.216,3.321,0.216,4.981
			c0.012,52.663,0.043,105.326-0.017,157.99c-0.013,11.494-7.602,22.058-21.134,21.624c-24.807-0.795-49.656-0.291-74.488-0.175
			c-5.354,0.025-10.617-0.814-15.931-0.997c-8.55-0.294-14.397-11.647-14.402-19.599c-0.028-54.664-0.019-109.326-0.004-163.99
			c0-2.824,0.157-5.649,0.241-8.474c3.602-0.07,7.204-0.141,10.805-0.211c2.669,0.213,1.789,2.271,1.932,3.765
			c0.731,7.645-0.976,15.174-1.053,22.797c-0.226,22.443,1.481,44.84,1.148,67.293c-0.38,25.656-0.088,51.322-0.087,76.984
			c0,1.167-0.153,2.36,0.043,3.494c0.463,2.689,2.135,4.612,4.822,4.791c3.053,0.204,4.805-1.71,5.105-4.755
			c0.13-1.32,0.033-2.664,0.033-3.997c0-54.991-0.013-109.981,0.06-164.972c0.002-1.776-1.156-4.043,1.233-5.355
			c11.924,2.73,24.176,4.196,35.505,9.22c16.362,7.255,33.451,7.139,50.785,5.226C502.213,532.646,507.116,530.602,511.772,527.628z
			"/>
		<path fill-rule="evenodd" clip-rule="evenodd" fill="#090909" d="M397.059,518.778c-3.602,0.07-7.204,0.141-10.805,0.211
			c0.025-7.982-0.513-15.968,0.413-23.942c1.272-10.959,5.756-20.383,13.287-28.379c9.09-9.651,14.229-21.165,16.021-34.195
			c3.287-23.904,6.466-47.823,9.661-71.74c0.15-1.126,0.516-2.852-0.05-3.346c-4.583-3.999-2.44-8.452-1.19-12.886
			c0.487-1.727,1.53-3.627-1.729-3.792c-1.266-0.063-1.42-1.133-0.806-2.207c1.494-2.611,1.055-6.55,4.958-7.484
			c1.269-0.304,2.648-0.188,3.978-0.188c12.154-0.012,24.31-0.014,36.464-0.004c5.508,0.004,8.807,3.013,9.038,8.235
			c0.019,0.433-0.101,1.223-0.285,1.264c-5.815,1.276-1.741,4.762-1.459,7.165c0.39,3.32,1.531,6.595-1.692,9.188
			c-1.301,1.047-0.775,2.453-0.606,3.719c3.331,24.906,6.455,49.843,10.145,74.696c1.74,11.721,6.751,22.272,15.034,30.934
			c9.839,10.289,14.352,22.553,14.378,36.626c0.016,8.325-0.024,16.65-0.039,24.975c-4.656,2.974-9.56,5.019-15.188,5.641
			c-17.334,1.913-34.422,2.029-50.785-5.226c-11.329-5.023-23.581-6.489-35.505-9.22c0.201-9.296,0.277-18.597,0.655-27.886
			c0.195-4.795,0.747-9.617,2.729-14.088c0.973-2.197,2.333-4.449-0.903-5.757c-2.851-1.153-5.698-1.857-7.665,1.833
			c-2.501,4.693-4.886,9.391-6.123,14.61C396.546,497.844,397.341,508.342,397.059,518.778z M434.417,346.619
			c-0.354,3.623-5.967,7.529,0.729,10.819c0.817,0.401,0.273,1.361-0.089,2.168c-0.81,1.802-1.767,3.661-2.003,5.579
			c-1.978,16.028-3.796,32.076-5.684,48.115c-1.129,9.593-2.238,19.189-3.483,28.767c-0.382,2.938,1.237,4.36,3.478,5.332
			c2.347,1.018,3.736-0.715,4.976-2.267c1.168-1.461,1.555-3.267,1.732-5.125c2.507-26.254,1.893-52.529,0.516-78.807
			c-0.069-1.313-0.716-2.911,0.393-3.81C439.777,353.503,435.911,350.138,434.417,346.619z"/>
		<path fill-rule="evenodd" clip-rule="evenodd" fill="#FDFDFD" d="M397.059,518.778c0.282-10.437-0.513-20.935,1.93-31.244
			c1.237-5.219,3.621-9.917,6.123-14.61c1.967-3.689,4.814-2.986,7.665-1.833c3.236,1.309,1.876,3.561,0.903,5.757
			c-1.982,4.472-2.534,9.293-2.729,14.088c-0.378,9.289-0.454,18.59-0.655,27.886c-2.389,1.313-1.231,3.579-1.233,5.355
			c-0.073,54.99-0.06,109.98-0.06,164.972c0,1.333,0.097,2.677-0.033,3.997c-0.3,3.045-2.053,4.959-5.105,4.755
			c-2.687-0.179-4.358-2.102-4.822-4.791c-0.196-1.134-0.043-2.327-0.043-3.494c0-25.662-0.292-51.328,0.087-76.984
			c0.333-22.453-1.375-44.85-1.148-67.293c0.077-7.623,1.784-15.152,1.053-22.797C398.848,521.049,399.729,518.991,397.059,518.778z
			"/>
		<path fill-rule="evenodd" clip-rule="evenodd" fill="#FDFDFD" d="M434.417,346.619c1.494,3.519,5.361,6.885,0.564,10.772
			c-1.109,0.899-0.461,2.497-0.393,3.81c1.377,26.278,1.991,52.553-0.516,78.807c-0.177,1.857-0.564,3.663-1.732,5.125
			c-1.24,1.552-2.629,3.285-4.976,2.267c-2.241-0.972-3.86-2.394-3.478-5.332c1.246-9.578,2.354-19.174,3.483-28.767
			c1.888-16.039,3.706-32.087,5.684-48.115c0.236-1.917,1.193-3.776,2.003-5.579c0.363-0.807,0.906-1.767,0.089-2.168
			C428.45,354.147,434.063,350.242,434.417,346.619z"/>
	</g>
</g>
<g id="beer-full" display="none">
	<g display="inline">
		<path fill-rule="evenodd" clip-rule="evenodd" fill="#FDD801" d="M382,595.843c0-31.663-0.002-63.325,0.001-94.989
			c0.001-12.066,4.327-22.385,12.681-31.027c9.444-9.77,13.974-21.832,16.305-34.899c2.96-16.589,3.445-33.505,6.817-50.067
			c1.524-7.487,1.58-15.274,3.109-22.821c0.064-0.317,0.139-0.833-0.027-0.969c-5.291-4.326-2.674-9.366-1.253-14.25
			c0.302-1.036,0.221-1.668-0.838-1.733c-4.733-0.29-2.487-2.882-1.815-5.117c1.69-5.627,5.22-7.376,11.146-7.128
			c12.31,0.516,24.657,0.141,36.989,0.164c4.104,0.008,9.569,6.638,8.826,10.64c-0.057,0.308-0.161,0.843-0.305,0.865
			c-6.148,0.933-1.344,4.492-1.78,6.825c-0.583,3.12,2.295,6.846-2.351,9.639c-1.226,0.737,0.411,6.374,0.866,9.743
			c1.51,11.179,2.878,22.383,4.677,33.517c2.594,16.055,2.323,32.583,8.801,48.016c3.637,8.666,9.597,15.442,15.421,22.44
			c5.459,6.56,8.513,14.438,8.552,22.574c0.316,65.824,0.291,131.65,0.063,197.475c-0.037,10.736-7.42,20.716-20.18,20.428
			c-25.484-0.573-50.99-0.116-76.487-0.213c-4.977-0.02-9.948-0.702-14.929-0.932c-8.414-0.387-14.2-11.145-14.233-19.195
			C381.921,661.835,382,628.839,382,595.843z M395,637.502c0,8.332,0,16.665,0,24.998c0,10.832,0.022,21.664-0.012,32.497
			c-0.011,3.603,1.948,5.786,5.254,5.864c3.272,0.076,4.818-2.313,4.759-5.596c-0.021-1.166-0.002-2.334-0.002-3.5
			c0-60.662,0.041-121.324-0.059-181.986c-0.011-6.64,1.178-13.158,1.303-19.795c0.062-3.333,0.288-7.153,2.359-10.412
			c0.585-0.921,2.256-3.343,0.055-4.156c-2.126-0.786-5.023-1.565-6.593,1.395c-3.519,6.634-6.827,13.494-6.976,21.099
			c-0.329,16.766-0.104,33.531-0.957,50.302c-0.674,13.242,0.232,26.527,0.721,39.798C395.462,604.487,395,621.003,395,637.502z
			 M429.998,376.838c-0.266-0.072-0.531-0.145-0.796-0.217c-0.144,2.948,0.217,6.03-0.52,8.822
			c-2.948,11.161-2.898,22.698-4.613,34.008c-1.225,8.082-1.436,16.299-2.919,24.37c-0.364,1.979-0.953,4.52,2.257,5.147
			c2.605,0.509,3.752-0.776,4.618-3.136c1.86-5.073,1.511-10.494,1.708-15.58C430.419,412.47,429.998,394.646,429.998,376.838z"/>
		<path fill-rule="evenodd" clip-rule="evenodd" fill="#FFFFFF" d="M395,637.502c0-16.499,0.462-33.015-0.146-49.491
			c-0.489-13.271-1.395-26.556-0.721-39.798c0.854-16.771,0.628-33.536,0.957-50.302c0.149-7.605,3.457-14.465,6.976-21.099
			c1.57-2.959,4.467-2.18,6.593-1.395c2.201,0.813,0.53,3.235-0.055,4.156c-2.071,3.258-2.297,7.078-2.359,10.412
			c-0.125,6.637-1.313,13.155-1.303,19.795c0.1,60.662,0.059,121.324,0.059,181.986c0,1.166-0.02,2.334,0.002,3.5
			c0.059,3.283-1.487,5.672-4.759,5.596c-3.307-0.078-5.266-2.262-5.254-5.864C395.022,684.164,395,673.332,395,662.5
			C395,654.167,395,645.834,395,637.502z"/>
		<path fill-rule="evenodd" clip-rule="evenodd" fill="#FFFFFF" d="M429.998,376.838c0,17.808,0.421,35.632-0.266,53.414
			c-0.197,5.085,0.152,10.507-1.708,15.58c-0.865,2.36-2.013,3.646-4.618,3.136c-3.21-0.627-2.621-3.168-2.257-5.147
			c1.483-8.071,1.694-16.288,2.919-24.37c1.715-11.31,1.665-22.847,4.613-34.008c0.737-2.792,0.376-5.874,0.52-8.822
			C429.467,376.693,429.732,376.766,429.998,376.838z"/>
	</g>
</g>
<g id="Layer_6">
	<g>
		<path fill-rule="evenodd" clip-rule="evenodd" fill="#FDD801" d="M649.997,517.115c-0.048,109.305-88.77,197.925-198.108,197.883
			c-109.294-0.043-197.935-88.783-197.886-198.109c0.048-108.88,88.74-197.92,197.112-197.886
			C561.357,319.038,650.045,407.381,649.997,517.115z M452.112,338.999c-102.051,5.364-170.631,76.919-178.114,173.639
			c3.143,106.265,78.097,175.291,173.889,182.363c105.664-3.253,175.185-77.785,182.113-174.139
			C626.9,416.18,551.926,343.897,452.112,338.999z"/>
		<path fill-rule="evenodd" clip-rule="evenodd" fill="#FFFFFD" d="M452.112,338.999c99.813,4.898,174.788,77.182,177.889,181.864
			c-6.929,96.354-76.449,170.886-182.113,174.139c-95.792-7.072-170.746-76.099-173.889-182.363
			C281.481,415.917,350.062,344.363,452.112,338.999z M621.223,516.396c-0.784-6.603-1.22-13.853-2.575-20.926
			c-2.912-15.204-7.026-30.031-13.476-44.251c-10.927-24.097-23.971-46.519-45.416-62.946
			c-15.658-11.994-32.734-21.417-51.237-28.294c-13.19-4.903-26.788-7.801-40.628-10.353c-12.835-2.366-25.214-1.267-37.647,0.85
			c-15.27,2.6-30.059,6.98-44.258,13.413c-21.465,9.724-41.628,21.243-57.481,39.133c-8.492,9.583-15.554,20.176-21.607,31.436
			c-11.213,20.858-18.647,42.844-22.268,66.41c-1.973,12.843-1.411,25.235,0.763,37.659c2.667,15.242,6.987,30.036,13.436,44.256
			c10.928,24.097,23.95,46.547,45.424,62.937c15.667,11.959,32.726,21.428,51.229,28.304c13.191,4.902,26.788,7.801,40.628,10.353
			c12.836,2.366,25.214,1.268,37.647-0.85c15.27-2.599,30.069-6.953,44.255-13.419c21.431-9.767,41.712-21.15,57.47-39.138
			c14.478-16.526,24.952-35.448,32.975-55.836C615.819,556.419,619.529,536.96,621.223,516.396z"/>
		<path fill-rule="evenodd" clip-rule="evenodd" fill="#FDD801" d="M621.223,516.396c-1.693,20.564-5.403,40.023-12.768,58.736
			c-8.022,20.388-18.497,39.31-32.975,55.836c-15.758,17.987-36.039,29.371-57.47,39.138c-14.186,6.466-28.985,10.82-44.255,13.419
			c-12.434,2.117-24.812,3.216-37.647,0.85c-13.84-2.552-27.437-5.45-40.628-10.353c-18.503-6.876-35.562-16.345-51.229-28.304
			c-21.474-16.39-34.496-38.84-45.424-62.937c-6.449-14.22-10.769-29.014-13.436-44.256c-2.174-12.424-2.736-24.816-0.763-37.659
			c3.621-23.565,11.055-45.551,22.268-66.41c6.053-11.26,13.115-21.853,21.607-31.436c15.853-17.89,36.016-29.409,57.481-39.133
			c14.2-6.432,28.988-10.813,44.258-13.413c12.433-2.117,24.812-3.215,37.647-0.85c13.84,2.551,27.438,5.449,40.628,10.353
			c18.503,6.878,35.579,16.3,51.237,28.294c21.445,16.427,34.489,38.849,45.416,62.946c6.449,14.22,10.563,29.047,13.476,44.251
			C620.003,502.543,620.438,509.793,621.223,516.396z M452.395,408.999c-5.999,0-11.998,0-17.997,0
			c-26.163,0-52.325-0.016-78.487,0.031c-1.945,0.004-4.281-0.935-4.973,2.482c-3.168,15.648-6.548,31.253-9.875,46.869
			c-0.496,2.325,0.187,3.247,2.724,3.364c4.044,0.187,7.174-0.533,9.908-4.104c5.359-6.998,10.919-13.897,17.437-19.9
			c15.766-14.521,35.255-18.465,55.761-19.728c4.188-0.258,5.242,0.866,5.231,5.072c-0.147,57.157-0.105,114.314-0.087,171.471
			c0.001,4.176-0.199,8.316-1.011,12.425c-1.611,8.143-6.598,13.479-14.743,14.956c-5.389,0.978-10.894,1.84-16.341,1.806
			c-4.704-0.03-3.759,2.678-4,5.417c-0.271,3.083,0.771,3.922,3.874,3.911c34.494-0.111,68.988-0.105,103.482-0.008
			c2.993,0.009,4.253-0.678,3.97-3.857c-0.245-2.749,0.67-5.49-3.991-5.504c-5.119-0.015-10.277-0.927-15.342-1.857
			c-8.816-1.62-14.264-6.833-15.52-15.896c-0.387-2.792-0.488-5.641-0.493-8.464c-0.039-21.996-0.021-43.992-0.022-65.988
			c0-35.994,0.104-71.988-0.124-107.98c-0.03-4.816,1.477-5.935,5.852-5.459c5.458,0.593,10.967,0.72,16.453,1.069
			c14.321,0.911,26.684,6.508,37.586,15.658c7.226,6.064,13.241,13.238,17.962,21.293c2.663,4.545,5.714,5.96,10.76,5.765
			c3.874-0.15,4.307-1.315,3.556-4.619c-3.315-14.596-6.635-29.195-9.573-43.869c-0.717-3.578-1.993-4.455-5.49-4.439
			C516.718,409.056,484.556,408.999,452.395,408.999z"/>
		<path fill-rule="evenodd" clip-rule="evenodd" fill="#FFFFFD" d="M452.395,408.999c32.161,0,64.323,0.058,96.483-0.083
			c3.497-0.016,4.773,0.861,5.49,4.439c2.938,14.674,6.258,29.273,9.573,43.869c0.751,3.304,0.318,4.469-3.556,4.619
			c-5.046,0.195-8.097-1.22-10.76-5.765c-4.721-8.055-10.736-15.229-17.962-21.293c-10.902-9.149-23.265-14.747-37.586-15.658
			c-5.486-0.349-10.995-0.476-16.453-1.069c-4.375-0.476-5.882,0.643-5.852,5.459c0.229,35.992,0.124,71.987,0.124,107.98
			c0.001,21.996-0.017,43.992,0.022,65.988c0.005,2.823,0.106,5.672,0.493,8.464c1.256,9.063,6.704,14.275,15.52,15.896
			c5.065,0.931,10.223,1.843,15.342,1.857c4.661,0.014,3.746,2.755,3.991,5.504c0.283,3.18-0.977,3.866-3.97,3.857
			c-34.494-0.098-68.988-0.104-103.482,0.008c-3.102,0.011-4.145-0.828-3.874-3.911c0.241-2.739-0.704-5.447,4-5.417
			c5.447,0.034,10.952-0.828,16.341-1.806c8.145-1.477,13.132-6.813,14.743-14.956c0.813-4.108,1.013-8.249,1.011-12.425
			c-0.018-57.157-0.06-114.314,0.087-171.471c0.011-4.206-1.042-5.33-5.231-5.072c-20.505,1.262-39.995,5.207-55.761,19.728
			c-6.517,6.002-12.077,12.902-17.437,19.9c-2.734,3.57-5.863,4.291-9.908,4.104c-2.537-0.117-3.22-1.039-2.724-3.364
			c3.327-15.616,6.707-31.221,9.875-46.869c0.692-3.417,3.028-2.478,4.973-2.482c26.162-0.047,52.324-0.031,78.487-0.031
			C440.396,408.999,446.396,408.999,452.395,408.999z M427.423,623.334c10.609,1.609,16.512-2.441,18.479-11.977
			c1.695-8.219,1.542-16.58,1.56-24.889c0.097-47.986,0.06-95.973,0.025-143.96c-0.003-4.161-0.238-8.326-0.509-12.479
			c-0.195-3.009-0.863-5.939-2.702-8.437c-1.454-1.975-3.637-3.745-5.846-3.165c-2.354,0.618-1.119,3.445-1.121,5.241
			c-0.068,56.651-0.042,113.302-0.082,169.952c-0.003,4.657-0.126,9.339-0.626,13.963
			C435.922,613.881,432.541,618.933,427.423,623.334z M515.255,418.036c-0.157,0.476-0.314,0.953-0.472,1.429
			c12.076,4.521,21.397,12.869,30.717,21.404c-1.474-7.021-3.384-13.665-5.237-20.323c-0.371-1.334-0.62-2.539-2.435-2.528
			C530.305,418.06,522.779,418.036,515.255,418.036z M350.122,441.644c0.363,0.274,0.725,0.548,1.088,0.822
			c7.172-9.857,16.114-17.624,26.791-23.723c-7.09-0.705-13.927-0.707-20.763-0.704c-1.396,0-1.957,0.738-2.251,2.093
			C353.421,427.315,351.753,434.476,350.122,441.644z"/>
		<path fill-rule="evenodd" clip-rule="evenodd" fill="#FED91A" d="M427.423,623.334c5.118-4.401,8.499-9.453,9.179-15.75
			c0.5-4.624,0.623-9.306,0.626-13.963c0.04-56.65,0.014-113.301,0.082-169.952c0.002-1.796-1.233-4.623,1.121-5.241
			c2.209-0.58,4.392,1.19,5.846,3.165c1.839,2.498,2.507,5.427,2.702,8.437c0.271,4.153,0.506,8.318,0.509,12.479
			c0.034,47.987,0.071,95.974-0.025,143.96c-0.018,8.309,0.136,16.67-1.56,24.889C443.935,620.893,438.032,624.943,427.423,623.334z
			"/>
		<path fill-rule="evenodd" clip-rule="evenodd" fill="#FED91A" d="M515.255,418.036c7.524,0,15.05,0.024,22.573-0.018
			c1.814-0.01,2.063,1.194,2.435,2.528c1.854,6.658,3.764,13.301,5.237,20.323c-9.319-8.535-18.641-16.883-30.717-21.404
			C514.94,418.988,515.098,418.512,515.255,418.036z"/>
		<path fill-rule="evenodd" clip-rule="evenodd" fill="#FED91A" d="M350.122,441.644c1.632-7.168,3.3-14.329,4.865-21.512
			c0.295-1.355,0.856-2.093,2.251-2.093c6.836-0.002,13.672-0.001,20.763,0.704c-10.677,6.099-19.619,13.866-26.791,23.723
			C350.847,442.192,350.484,441.918,350.122,441.644z"/>
	</g>
</g>
</svg>
